<?xml version="1.0" standalone="no"?>
<!DOCTYPE svg PUBLIC "-//W3C//DTD SVG 20010904//EN"
 "http://www.w3.org/TR/2001/REC-SVG-20010904/DTD/svg10.dtd">
<svg version="1.0" xmlns="http://www.w3.org/2000/svg"
 width="162.000000pt" height="162.000000pt" viewBox="0 0 162.000000 162.000000"
 preserveAspectRatio="xMidYMid meet">
<metadata>
Created by potrace 1.11, written by Peter Selinger 2001-2013
</metadata>
<g transform="translate(0.000000,162.000000) scale(0.100000,-0.100000)"
fill="#000000" stroke="none">
<path d="M71 1265 c4 -3 35 -14 70 -24 35 -10 171 -53 302 -95 131 -42 244
-76 251 -76 21 0 6 50 -18 61 -19 8 -297 72 -370 85 -16 3 -32 7 -36 9 -4 2
-22 7 -41 10 -19 3 -50 10 -69 14 -76 19 -95 22 -89 16z"/>
<path d="M1548 1263 c7 -3 16 -2 19 1 4 3 -2 6 -13 5 -11 0 -14 -3 -6 -6z"/>
<path d="M1214 1196 c-149 -34 -275 -65 -281 -69 -16 -10 -23 -57 -8 -57 7 0
64 16 126 36 63 20 193 60 289 91 96 30 180 56 185 58 6 2 -1 3 -15 3 -14 0
-147 -28 -296 -62z"/>
<path d="M301 1101 c150 -76 275 -144 277 -150 2 -7 -106 42 -239 108 -134 67
-236 115 -225 109 33 -23 98 -63 291 -181 l190 -116 38 -98 c85 -216 180 -453
182 -451 1 2 49 126 106 276 l104 274 247 151 c136 83 245 153 244 154 -2 2
-23 -8 -47 -21 -77 -42 -423 -215 -426 -213 -9 10 43 39 262 151 138 70 254
132 259 136 5 5 -11 3 -35 -5 -96 -29 -478 -144 -546 -164 -55 -17 -73 -27
-79 -44 -4 -12 -21 -53 -39 -92 -18 -38 -35 -80 -39 -92 -4 -13 -11 -23 -15
-23 -4 0 -29 51 -56 113 -26 61 -48 113 -50 115 -2 2 -39 14 -265 82 -52 15
-164 49 -247 74 -84 25 -155 46 -159 46 -3 0 117 -63 267 -139z"/>
</g>
</svg>
